{
  "source": "C:\\Users\\Peter\\Desktop\\stuff\\MIUN\\quantitative_research\\video_compression\\videos\\UVG\\ShakeNDry_1920x1080_120fps_420_8bit_YUV.y4m",
  "output": "C:\\Users\\Peter\\Desktop\\stuff\\MIUN\\quantitative_research\\video_compression\\compressed_videos\\UVG\\h264\\3\\ShakeNDry_1920x1080_120fps_420_8bit_YUV_h264.mp4",
  "codec": "h264",
  "ok": "[yuv4mpegpipe @ 0000021ecab35e00] Stream #0: not enough frames to estimate rate; consider increasing probesize\nInput #0, yuv4mpegpipe, from 'C:\\Users\\Peter\\Desktop\\stuff\\MIUN\\quantitative_research\\video_compression\\videos\\UVG\\ShakeNDry_1920x1080_120fps_420_8bit_YUV.y4m':\n  Duration: 00:00:02.50, start: 0.000000, bitrate: 2985989 kb/s\n  Stream #0:0: Video: rawvideo (I420 / 0x30323449), yuv420p(progressive), 1920x1080, 120 fps, 120 tbr, 120 tbn\n[out#0/mp4 @ 0000021ecab3a600] Codec AVOption b:a (set bitrate (in bits/s)) has not been used for any stream. The most likely reason is either wrong type (e.g. a video option with no video streams) or that it is a private option of some decoder which was not actually used for any stream.\nStream mapping:\n  Stream #0:0 -> #0:0 (rawvideo (native) -> h264 (libx264))\nPress [q] to stop, [?] for help\n[libx264 @ 0000021ecab3ca80] using cpu capabilities: MMX2 SSE2Fast SSSE3 SSE4.2 AVX FMA3 BMI2 AVX2\n[libx264 @ 0000021ecab3ca80] profile High, level 5.1, 4:2:0, 8-bit\n[libx264 @ 0000021ecab3ca80] 264 - core 165 r3222 b35605a - H.264/MPEG-4 AVC codec - Copyleft 2003-2025 - http://www.videolan.org/x264.html - options: cabac=1 ref=5 deblock=1:0:0 analyse=0x3:0x113 me=hex subme=8 psy=1 psy_rd=1.00:0.00 mixed_ref=1 me_range=16 chroma_me=1 trellis=2 8x8dct=1 cqm=0 deadzone=21,11 fast_pskip=1 chroma_qp_offset=-2 threads=18 lookahead_threads=3 sliced_threads=0 nr=0 decimate=1 interlaced=0 bluray_compat=0 constrained_intra=0 bframes=3 b_pyramid=2 b_adapt=1 b_bias=0 direct=3 weightb=1 open_gop=0 weightp=2 keyint=250 keyint_min=25 scenecut=40 intra_refresh=0 rc_lookahead=50 rc=cbr mbtree=1 bitrate=3000 ratetol=1.0 qcomp=0.60 qpmin=0 qpmax=69 qpstep=4 vbv_maxrate=3000 vbv_bufsize=3000 nal_hrd=none filler=0 ip_ratio=1.40 aq=1:1.00\nOutput #0, mp4, to 'C:\\Users\\Peter\\Desktop\\stuff\\MIUN\\quantitative_research\\video_compression\\compressed_videos\\UVG\\h264\\3\\ShakeNDry_1920x1080_120fps_420_8bit_YUV_h264.mp4':\n  Metadata:\n    encoder         : Lavf62.3.100\n  Stream #0:0: Video: h264 (avc1 / 0x31637661), yuv420p(tv, progressive), 1920x1080, q=2-31, 3000 kb/s, 120 fps, 15360 tbn\n    Metadata:\n      encoder         : Lavc62.11.100 libx264\n    Side data:\n      cpb: bitrate max/min/avg: 3000000/0/3000000 buffer size: 3000000 vbv_delay: N/A\nframe=    0 fps=0.0 q=0.0 size=       0KiB time=N/A bitrate=N/A speed=N/A elapsed=0:00:00.51    \nframe=    0 fps=0.0 q=0.0 size=       0KiB time=N/A bitrate=N/A speed=N/A elapsed=0:00:01.02    \nframe=   20 fps= 13 q=45.0 size=       0KiB time=00:00:00.15 bitrate=   2.6kbits/s speed=0.0974x elapsed=0:00:01.54    \nframe=   48 fps= 23 q=43.0 size=       0KiB time=00:00:00.38 bitrate=   1.0kbits/s speed=0.186x elapsed=0:00:02.05    \nframe=   76 fps= 30 q=42.0 size=       0KiB time=00:00:00.61 bitrate=   0.6kbits/s speed=0.24x elapsed=0:00:02.56    \nframe=  108 fps= 35 q=41.0 size=       0KiB time=00:00:00.88 bitrate=   0.4kbits/s speed=0.286x elapsed=0:00:03.08    \nframe=  136 fps= 38 q=40.0 size=     256KiB time=00:00:01.11 bitrate=1878.4kbits/s speed=0.31x elapsed=0:00:03.59    \nframe=  168 fps= 41 q=40.0 size=     256KiB time=00:00:01.38 bitrate=1516.3kbits/s speed=0.336x elapsed=0:00:04.12    \nframe=  196 fps= 42 q=40.0 size=     256KiB time=00:00:01.61 bitrate=1297.4kbits/s speed=0.349x elapsed=0:00:04.63    \nframe=  224 fps= 43 q=40.0 size=     512KiB time=00:00:01.85 bitrate=2267.4kbits/s speed=0.359x elapsed=0:00:05.15    \nframe=  233 fps= 41 q=40.0 size=     512KiB time=00:00:01.92 bitrate=2179.1kbits/s speed=0.34x elapsed=0:00:05.66    \nframe=  276 fps= 45 q=40.0 size=     512KiB time=00:00:02.28 bitrate=1837.1kbits/s speed=0.37x elapsed=0:00:06.17    \n[mp4 @ 0000021ecab3b700] Starting second pass: moving the moov atom to the beginning of the file\n[out#0/mp4 @ 0000021ecab3a600] video:744KiB audio:0KiB subtitle:0KiB other streams:0KiB global headers:0KiB muxing overhead: 0.585126%\nframe=  300 fps= 47 q=-1.0 Lsize=     748KiB time=00:00:02.48 bitrate=2467.1kbits/s speed=0.392x elapsed=0:00:06.34    \n[libx264 @ 0000021ecab3ca80] frame I:2     Avg QP:37.60  size: 49468\n[libx264 @ 0000021ecab3ca80] frame P:76    Avg QP:37.30  size:  5001\n[libx264 @ 0000021ecab3ca80] frame B:222   Avg QP:42.00  size:  1268\n[libx264 @ 0000021ecab3ca80] consecutive B-frames:  1.3%  0.0%  0.0% 98.7%\n[libx264 @ 0000021ecab3ca80] mb I  I16..4: 29.5% 66.6%  3.9%\n[libx264 @ 0000021ecab3ca80] mb P  I16..4:  0.4%  0.9%  0.0%  P16..4: 15.4%  0.9%  5.3%  0.0%  0.0%    skip:77.0%\n[libx264 @ 0000021ecab3ca80] mb B  I16..4:  0.0%  0.0%  0.0%  B16..8: 12.3%  0.3%  0.0%  direct: 0.1%  skip:87.3%  L0:26.2% L1:73.5% BI: 0.3%\n[libx264 @ 0000021ecab3ca80] 8x8 transform intra:67.9% inter:85.0%\n[libx264 @ 0000021ecab3ca80] direct mvs  spatial:95.5% temporal:4.5%\n[libx264 @ 0000021ecab3ca80] coded y,uvDC,uvAC intra: 45.7% 43.7% 9.6% inter: 1.2% 1.1% 0.0%\n[libx264 @ 0000021ecab3ca80] i16 v,h,dc,p: 27% 25%  7% 41%\n[libx264 @ 0000021ecab3ca80] i8 v,h,dc,ddl,ddr,vr,hd,vl,hu:  4%  5%  6% 10% 18% 13% 22%  9% 14%\n[libx264 @ 0000021ecab3ca80] i4 v,h,dc,ddl,ddr,vr,hd,vl,hu:  2%  4%  1% 10% 18% 13% 23%  9% 19%\n[libx264 @ 0000021ecab3ca80] i8c dc,h,v,p: 57% 23% 10% 11%\n[libx264 @ 0000021ecab3ca80] Weighted P-Frames: Y:0.0% UV:0.0%\n[libx264 @ 0000021ecab3ca80] ref P L0: 62.4% 17.6% 10.8%  4.1%  5.0%\n[libx264 @ 0000021ecab3ca80] ref B L0: 80.4% 12.7%  5.2%  1.7%\n[libx264 @ 0000021ecab3ca80] ref B L1: 93.4%  6.6%\n[libx264 @ 0000021ecab3ca80] kb/s:2433.96\n",
  "seconds": 6.5039732456207275,
  "probe_out": {}
}